Coordinates
version=1
nRows=17
nColumns=40
inDegrees=yes

Units are S.I. units (second, meters, Newtons, ...)
If the header above contains a line with 'inDegrees', this indicates whether rotational values are in degrees (yes) or radians (no).

endheader
time	pelvis_tilt	pelvis_list	pelvis_rotation	pelvis_tx	pelvis_ty	pelvis_tz	hip_flexion_r	hip_adduction_r	hip_rotation_r	knee_angle_r	knee_angle_r_beta	ankle_angle_r	subtalar_angle_r	mtp_angle_r	hip_flexion_l	hip_adduction_l	hip_rotation_l	knee_angle_l	knee_angle_l_beta	ankle_angle_l	subtalar_angle_l	mtp_angle_l	lumbar_extension	lumbar_bending	lumbar_rotation	arm_flex_r	arm_add_r	arm_rot_r	elbow_flex_r	pro_sup_r	wrist_flex_r	wrist_dev_r	arm_flex_l	arm_add_l	arm_rot_l	elbow_flex_l	pro_sup_l	wrist_flex_l	wrist_dev_l
     10.10000000	    -72.54627094	     65.12113505	    -89.94136924	      0.82111028	      0.60160228	     -0.29680589	     45.00000043	     -9.99999999	      0.00000000	     60.00014180	      1.04720003	     -4.99999985	      0.00000000	      0.00000000	     45.00000043	     -9.99999999	      0.00000000	     60.00014180	      1.04720003	     -4.99999985	      0.00000000	      0.00000000	    -64.75238788	     88.83209746	     45.76232489	     -4.35169213	    -38.23297137	     30.50734033	    100.35555534	     86.12614794	      0.00000000	      0.00000000	      6.40746544	    -35.17609423	     45.21641007	     93.01326633	     89.12334069	      0.00000000	      0.00000000
     10.10500000	    -72.55719071	     65.13341007	    -89.94167895	      0.82106297	      0.60160546	     -0.29685316	     45.00000043	     -9.99999999	      0.00000000	     60.00014180	      1.04720003	     -4.99999985	      0.00000000	      0.00000000	     45.00000043	     -9.99999999	      0.00000000	     60.00014180	      1.04720003	     -4.99999985	      0.00000000	      0.00000000	    -64.74649635	     88.83080886	     45.76802314	     -4.35995594	    -38.22559633	     30.51307200	    100.35019101	     86.12608794	      0.00000000	      0.00000000	      6.39834346	    -35.18709179	     45.22029375	     93.01243762	     89.12432997	      0.00000000	      0.00000000
     10.11000000	    -72.52830520	     65.12885281	    -89.94168058	      0.82119674	      0.60156687	     -0.29682149	     45.00000043	     -9.99999999	      0.00000000	     60.00014180	      1.04720003	     -4.99999985	      0.00000000	      0.00000000	     45.00000043	     -9.99999999	      0.00000000	     60.00014180	      1.04720003	     -4.99999985	      0.00000000	      0.00000000	    -64.74719376	     88.84484807	     45.76776773	     -4.34983375	    -38.22667588	     30.50297620	    100.35252767	     86.12498563	      0.00000000	      0.00000000	      6.42302000	    -35.18277035	     45.20973847	     93.01499511	     89.19541255	      0.00000000	      0.00000000
     10.11500000	    -72.55318240	     65.13952731	    -89.94164980	      0.82112258	      0.60158451	     -0.29687993	     45.00000043	     -9.99999999	      0.00000000	     60.00014180	      1.04720003	     -4.99999985	      0.00000000	      0.00000000	     45.00000043	     -9.99999999	      0.00000000	     60.00014180	      1.04720003	     -4.99999985	      0.00000000	      0.00000000	    -64.74143047	     88.83323905	     45.77287159	     -4.35556955	    -38.22193684	     30.50691016	    100.34891029	     86.12515398	      0.00000000	      0.00000000	      6.40889979	    -35.18365644	     45.21844370	     93.01481693	     89.12387368	      0.00000000	      0.00000000
     10.12000000	    -72.56207872	     65.15087837	    -89.94162183	      0.82108461	      0.60158872	     -0.29694060	     45.00000043	     -9.99999999	      0.00000000	     60.00014180	      1.04720003	     -4.99999985	      0.00000000	      0.00000000	     45.00000043	     -9.99999999	      0.00000000	     60.00014180	      1.04720003	     -4.99999985	      0.00000000	      0.00000000	    -64.73599874	     88.83109886	     45.77815231	     -4.36224150	    -38.21454892	     30.51178000	    100.34502598	     86.12521616	      0.00000000	      0.00000000	      6.40013114	    -35.18988293	     45.22332303	     93.01448285	     89.12429927	      0.00000000	      0.00000000
     10.12500000	    -72.53448403	     65.08943615	    -89.94171016	      0.82115157	      0.60155401	     -0.29674755	     45.00000043	     -9.99999999	      0.00000000	     60.00014180	      1.04720003	     -4.99999985	      0.00000000	      0.00000000	     45.00000043	     -9.99999999	      0.00000000	     60.00014180	      1.04720003	     -4.99999985	      0.00000000	      0.00000000	    -64.75664053	     88.85062608	     45.75492945	     -4.38336635	    -38.23013617	     30.48710553	    100.36595762	     86.12483794	      0.00000000	      0.00000000	      6.43044380	    -35.16489051	     45.21537428	     92.97816408	     89.22030358	      0.00000000	      0.00000000
     10.13000000	    -72.55488825	     65.10393171	    -89.94176662	      0.82109136	      0.60158291	     -0.29682142	     45.00000043	     -9.99999999	      0.00000000	     60.00014180	      1.04720003	     -4.99999985	      0.00000000	      0.00000000	     45.00000043	     -9.99999999	      0.00000000	     60.00014180	      1.04720003	     -4.99999985	      0.00000000	      0.00000000	    -64.75056616	     88.83988293	     45.76039524	     -4.38574669	    -38.22096181	     30.48875705	    100.36014664	     86.12459460	      0.00000000	      0.00000000	      6.41787470	    -35.16663945	     45.22513443	     92.98262000	     89.12511080	      0.00000000	      0.00000000
     10.13500000	    -72.53223398	     65.10553754	    -89.94173545	      0.82118781	      0.60155665	     -0.29677100	     45.00000043	     -9.99999999	      0.00000000	     60.00014180	      1.04720003	     -4.99999985	      0.00000000	      0.00000000	     45.00000043	     -9.99999999	      0.00000000	     60.00014180	      1.04720003	     -4.99999985	      0.00000000	      0.00000000	    -64.74817495	     88.85555882	     45.76229724	     -4.37932751	    -38.22075911	     30.47560762	    100.35259332	     86.12327274	      0.00000000	      0.00000000	      6.43591295	    -35.16142920	     45.22276894	     92.99706087	     89.19581897	      0.00000000	      0.00000000
     10.14000000	    -72.55598162	     65.11666114	    -89.94174436	      0.82111987	      0.60159049	     -0.29684387	     45.00000043	     -9.99999999	      0.00000000	     60.00014180	      1.04720003	     -4.99999985	      0.00000000	      0.00000000	     45.00000043	     -9.99999999	      0.00000000	     60.00014180	      1.04720003	     -4.99999985	      0.00000000	      0.00000000	    -64.74121520	     88.84274807	     45.76850758	     -4.38578119	    -38.21203395	     30.48006209	    100.34908433	     86.12322816	      0.00000000	      0.00000000	      6.42367859	    -35.16481390	     45.22984635	     92.99738770	     89.12479801	      0.00000000	      0.00000000
     10.14500000	    -72.53188694	     65.10486518	    -89.94172724	      0.82119164	      0.60156637	     -0.29674245	     45.00000043	     -9.99999999	      0.00000000	     60.00014180	      1.04720003	     -4.99999985	      0.00000000	      0.00000000	     45.00000043	     -9.99999999	      0.00000000	     60.00014180	      1.04720003	     -4.99999985	      0.00000000	      0.00000000	    -64.74348957	     88.86099993	     45.76533182	     -4.38890834	    -38.22875670	     30.47239051	    100.35046421	     86.12209197	      0.00000000	      0.00000000	      6.43888540	    -35.15237118	     45.22541389	     92.99236135	     89.19991103	      0.00000000	      0.00000000
     10.15000000	    -72.55652424	     65.11670882	    -89.94177082	      0.82111873	      0.60160558	     -0.29680703	     45.00000043	     -9.99999999	      0.00000000	     60.00014180	      1.04720003	     -4.99999985	      0.00000000	      0.00000000	     45.00000043	     -9.99999999	      0.00000000	     60.00014180	      1.04720003	     -4.99999985	      0.00000000	      0.00000000	    -64.73773393	     88.84958398	     45.77031796	     -4.39387775	    -38.21821514	     30.47707180	    100.34788364	     86.12181560	      0.00000000	      0.00000000	      6.42609293	    -35.15633511	     45.23381368	     92.99084760	     89.12597925	      0.00000000	      0.00000000
     10.15500000	    -72.56941923	     65.12821474	    -89.94169457	      0.82107544	      0.60162331	     -0.29686528	     45.00000043	     -9.99999999	      0.00000000	     60.00014180	      1.04720003	     -4.99999985	      0.00000000	      0.00000000	     45.00000043	     -9.99999999	      0.00000000	     60.00014180	      1.04720003	     -4.99999985	      0.00000000	      0.00000000	    -64.73081555	     88.84354093	     45.77683215	     -4.39953095	    -38.21026524	     30.48077821	    100.34354393	     86.12154700	      0.00000000	      0.00000000	      6.41754601	    -35.16336431	     45.23824659	     92.99042138	     89.12477182	      0.00000000	      0.00000000
     10.16000000	    -72.53943866	     65.10875993	    -89.94167007	      0.82119330	      0.60160116	     -0.29671045	     45.00000043	     -9.99999999	      0.00000000	     60.00014180	      1.04720003	     -4.99999985	      0.00000000	      0.00000000	     45.00000043	     -9.99999999	      0.00000000	     60.00014180	      1.04720003	     -4.99999985	      0.00000000	      0.00000000	    -64.73629987	     88.86557752	     45.77051185	     -4.39856767	    -38.22998149	     30.46181200	    100.34817432	     86.12025207	      0.00000000	      0.00000000	      6.44279990	    -35.13671924	     45.22144060	     92.98558619	     89.20329229	      0.00000000	      0.00000000
     10.16500000	    -72.56257858	     65.11931054	    -89.94177442	      0.82111684	      0.60164592	     -0.29680577	     45.00000043	     -9.99999999	      0.00000000	     60.00014180	      1.04720003	     -4.99999985	      0.00000000	      0.00000000	     45.00000043	     -9.99999999	      0.00000000	     60.00014180	      1.04720003	     -4.99999985	      0.00000000	      0.00000000	    -64.72947934	     88.85362141	     45.77656316	     -4.40552653	    -38.21763255	     30.46718547	    100.34698040	     86.12028923	      0.00000000	      0.00000000	      6.42746770	    -35.14658972	     45.22912424	     92.98287649	     89.12638857	      0.00000000	      0.00000000
     10.17000000	    -72.57729759	     65.13029545	    -89.94169679	      0.82106629	      0.60166629	     -0.29686180	     45.00000043	     -9.99999999	      0.00000000	     60.00014180	      1.04720003	     -4.99999985	      0.00000000	      0.00000000	     45.00000043	     -9.99999999	      0.00000000	     60.00014180	      1.04720003	     -4.99999985	      0.00000000	      0.00000000	    -64.72331105	     88.84728276	     45.78224961	     -4.41095333	    -38.21042772	     30.47092562	    100.34419832	     86.12017337	      0.00000000	      0.00000000	      6.41792538	    -35.15329390	     45.23412990	     92.98294152	     89.12492181	      0.00000000	      0.00000000
     10.17500000	    -72.58802776	     65.14089291	    -89.94163421	      0.82103601	      0.60167235	     -0.29691552	     45.00000043	     -9.99999999	      0.00000000	     60.00014180	      1.04720003	     -4.99999985	      0.00000000	      0.00000000	     45.00000043	     -9.99999999	      0.00000000	     60.00014180	      1.04720003	     -4.99999985	      0.00000000	      0.00000000	    -64.71712584	     88.84312489	     45.78811347	     -4.41524645	    -38.20377437	     30.47383702	    100.34126826	     86.12001970	      0.00000000	      0.00000000	      6.41183793	    -35.15853750	     45.23702215	     92.98446429	     89.12408643	      0.00000000	      0.00000000
     10.18000000	    -72.55791224	     65.12627689	    -89.94168394	      0.82114812	      0.60163346	     -0.29680531	     45.00000043	     -9.99999999	      0.00000000	     60.00014180	      1.04720003	     -4.99999985	      0.00000000	      0.00000000	     45.00000043	     -9.99999999	      0.00000000	     60.00014180	      1.04720003	     -4.99999985	      0.00000000	      0.00000000	    -64.71991255	     88.86267998	     45.78466971	     -4.41214415	    -38.21673507	     30.45356511	    100.35078735	     86.11988339	      0.00000000	      0.00000000	      6.43574126	    -35.13935963	     45.22125559	     92.98028617	     89.19543910	      0.00000000	      0.00000000
